<?xml version="1.0" encoding="UTF-8" standalone="no"?>
<!-- Created with Inkscape (http://www.inkscape.org/) -->

<svg
   width="140mm"
   height="140mm"
   viewBox="0 0 140 140"
   version="1.1"
   id="svg1"
   xmlns="http://www.w3.org/2000/svg"
   xmlns:svg="http://www.w3.org/2000/svg">
  <defs
     id="defs1" />
  <g
     id="layer1"
     style="display:inline">
    <ellipse
       style="fill:#545454;fill-opacity:1;stroke-width:0.248248"
       id="path3"
       cy="62.5"
       cx="70.0158"
       rx="50"
       ry="55" />
    <path
       style="fill:#545454;fill-opacity:1;stroke-width:0.26745"
       d="m 20.143878,62.5 c 0,0 -2.75756,30.19228 15.871924,50 13.97476,14.85861 33.999998,20 33.999998,20 0,0 20.14208,-4.91802 34,-20 18.28119,-19.89597 15.88501,-49.47566 15.88501,-49.47566 z"
       id="path4" />
  </g>
  <g
     id="layer4"
     style="display:none">
    <rect
       style="fill:#000000;fill-opacity:1;stroke-width:0.264583"
       id="rect1"
       width="30"
       height="5"
       x="30.0158"
       y="34.5"
       rx="1"
       ry="1" />
    <rect
       style="fill:#ffffff;fill-opacity:1;stroke-width:0.264583"
       id="rect1-5"
       width="30"
       height="5"
       x="80.0158"
       y="34.5"
       rx="1"
       ry="1" />
  </g>
  <g
     id="layer3"
     style="display:inline">
    <path
       style="display:inline;fill:#000000;fill-opacity:1;stroke-width:0.260421"
       d="M 78.98977,41.5 77.66165,35.75532 102.29836,32.5 l 9.36329,9 -12.48438,-2.42553 z"
       id="path9-1-3" />
    <path
       style="display:inline;fill:#000000;fill-opacity:1;stroke-width:0.260421"
       d="M 61.100173,41.5 62.428301,35.75532 37.791589,32.5 l -9.363288,9 12.484377,-2.42553 z"
       id="path9-1" />
    <path
       style="display:inline;fill:#ffffff;fill-opacity:1;stroke-width:0.264583"
       d="m 83.7145,34.932811 0.66145,5.324739 15.11433,-4.464843 -0.52917,-2.877344 z"
       id="path9" />
  </g>
  <g
     id="layer2">
    <path
       id="rect8"
       style="display:inline;fill:#000000;fill-opacity:1;stroke-width:0.264363"
       d="m 30.017003,42.49979 a 5.0014109,4.995222 0 0 0 -5.001245,4.99556 v 15.01149 a 4.999382,4.9931957 0 0 0 4.999178,4.99298 h 29.99972 a 5.0012403,4.9950517 0 0 0 5.001245,-4.99505 V 47.49225 a 4.9985612,4.9923758 0 0 0 -4.998662,-4.99246 z m 5.17e-4,2.0004 h 29.998169 a 3.0000884,2.7966177 0 0 1 3.000334,2.79621 v 15.40836 a 2.9983656,2.7950117 0 0 1 -2.998784,2.79518 H 30.014936 a 2.9993096,2.7958917 0 0 1 -2.9993,-2.7957 V 47.29795 a 3.0016371,2.7980614 0 0 1 3.001884,-2.79776 z" />
    <rect
       style="display:inline;fill:#000000;fill-opacity:1;stroke-width:0.264583"
       id="rect9"
       width="12.006841"
       height="2.0009084"
       x="64.009941"
       y="47.498459" />
    <path
       id="rect8-7"
       style="display:inline;fill:#000000;fill-opacity:1;stroke-width:0.264363"
       d="m 80.0171,42.48317 a 5.0014108,4.995222 0 0 0 -5.0013,4.99555 v 15.01149 a 4.999382,4.9931956 0 0 0 4.9992,4.99298 h 29.9997 a 5.0012403,4.9950516 0 0 0 5.0012,-4.99504 V 47.47563 a 4.9985611,4.9923758 0 0 0 -4.9986,-4.99246 z m 5e-4,2.00039 h 29.9981 a 3.0000884,2.7966177 0 0 1 3.0004,2.79621 v 15.40837 a 2.9983656,2.7950117 0 0 1 -2.9988,2.79518 H 80.015 a 2.9993096,2.7958917 0 0 1 -2.9993,-2.7957 v -15.4063 a 3.0016371,2.7980613 0 0 1 3.0019,-2.79776 z" />
  </g>
</svg>
